<svg width="20" height="20" viewBox="0 0 20 20" fill="none" xmlns="http://www.w3.org/2000/svg">
<path d="M3 19C2.45 19 1.97917 18.8042 1.5875 18.4125C1.19583 18.0208 1 17.55 1 17V3C1 2.45 1.19583 1.97917 1.5875 1.5875C1.97917 1.19583 2.45 1 3 1H9C9.28333 1 9.52083 1.09583 9.7125 1.2875C9.90417 1.47917 10 1.71667 10 2C10 2.28333 9.90417 2.52083 9.7125 2.7125C9.52083 2.90417 9.28333 3 9 3H3V17H17V11C17 10.7167 17.0958 10.4792 17.2875 10.2875C17.4792 10.0958 17.7167 10 18 10C18.2833 10 18.5208 10.0958 18.7125 10.2875C18.9042 10.4792 19 10.7167 19 11V17C19 17.55 18.8042 18.0208 18.4125 18.4125C18.0208 18.8042 17.55 19 17 19H3ZM17 4.4L8.4 13C8.21667 13.1833 7.98333 13.275 7.7 13.275C7.41667 13.275 7.18333 13.1833 7 13C6.81667 12.8167 6.725 12.5833 6.725 12.3C6.725 12.0167 6.81667 11.7833 7 11.6L15.6 3H13C12.7167 3 12.4792 2.90417 12.2875 2.7125C12.0958 2.52083 12 2.28333 12 2C12 1.71667 12.0958 1.47917 12.2875 1.2875C12.4792 1.09583 12.7167 1 13 1H18C18.2833 1 18.5208 1.09583 18.7125 1.2875C18.9042 1.47917 19 1.71667 19 2V7C19 7.28333 18.9042 7.52083 18.7125 7.7125C18.5208 7.90417 18.2833 8 18 8C17.7167 8 17.4792 7.90417 17.2875 7.7125C17.0958 7.52083 17 7.28333 17 7V4.4Z" fill="#F4F5F6"/>
</svg>
