<svg width="40" height="40" viewBox="0 0 40 40" fill="none" xmlns="http://www.w3.org/2000/svg">
<rect width="40" height="40" rx="20" fill="#00C73C"/>
<path d="M27.0469 15.6384C26.0564 16.3184 25.3765 17.364 25.1567 18.5453C24.9369 19.7265 25.1953 20.9467 25.875 21.9375L27.6142 20.7446C27.3429 20.3498 27.1948 19.8834 27.1885 19.4044C27.1823 18.9254 27.3183 18.4554 27.5792 18.0536C27.8402 17.6519 28.2144 17.3366 28.6546 17.1476C29.0947 16.9586 29.5811 16.9044 30.052 16.9918C30.523 17.0792 30.9575 17.3043 31.3006 17.6386C31.6436 17.973 31.8798 18.4016 31.9793 18.8701C32.0787 19.3387 32.037 19.8263 31.8593 20.2712C31.6817 20.716 31.3761 21.0982 30.9812 21.3694L24.9901 25.4793L26.183 27.2185L32.1741 23.1089C32.6737 22.7761 33.1021 22.3475 33.4346 21.8478C33.7671 21.3481 33.9971 20.7873 34.1111 20.198C34.225 19.6087 34.2208 19.0027 34.0986 18.415C33.9764 17.8274 33.7387 17.2699 33.3993 16.7749C33.0598 16.2799 32.6254 15.8572 32.1213 15.5315C31.6171 15.2058 31.0533 14.9835 30.4625 14.8775C29.8718 14.7714 29.2658 14.7839 28.6799 14.914C28.0939 15.0441 27.5397 15.2893 27.0493 15.6354L27.0469 15.6384Z" fill="url(#paint0_linear_6_12)"/>
<path d="M18.8282 12.4219C13.1327 12.4219 8.51575 14.4673 8.51575 16.7968V21.6407C8.51575 24.3758 9.60224 26.9988 11.5362 28.9328C13.4702 30.8668 16.0932 31.9532 18.8282 31.9532C21.5633 31.9532 24.1863 30.8668 26.1203 28.9328C28.0543 26.9988 29.1408 24.3758 29.1408 21.6407V16.7968C29.1408 14.467 24.5235 12.4219 18.8282 12.4219Z" fill="white"/>
<path d="M18.8281 19.6875C23.5743 19.6875 27.4219 18.3234 27.4219 16.6406C27.4219 14.9579 23.5743 13.5938 18.8281 13.5938C14.0819 13.5938 10.2344 14.9579 10.2344 16.6406C10.2344 18.3234 14.0819 19.6875 18.8281 19.6875Z" fill="#CCCCCC"/>
<path d="M18.8282 19.6875C22.743 19.6875 26.0454 18.7594 27.0827 17.4898C26.7446 15.9218 23.1782 14.6876 18.8282 14.6876C14.4782 14.6876 10.9119 15.9218 10.5735 17.4898C11.6108 18.7594 14.9132 19.6875 18.8282 19.6875Z" fill="url(#paint1_linear_6_12)"/>
<path d="M19.5313 15.1565C22.3937 15.1565 24.918 15.6906 26.4062 16.503C25.1194 15.4335 22.2109 14.6876 18.8282 14.6876C14.4782 14.6876 10.9119 15.9218 10.5735 17.4898C10.7705 17.7203 11.0009 17.9199 11.2571 18.0821C11.4298 16.4554 15.0679 15.1562 19.5313 15.1562V15.1565Z" fill="url(#paint2_linear_6_12)"/>
<path d="M15.1565 17.1874C15.1565 17.1874 17.5001 18.3596 20.625 18.3596C23.7499 18.3596 26.0935 17.1874 26.0935 17.1874V16.272C24.6874 15.3272 21.9608 14.6876 18.8282 14.6876C17.5974 14.6822 16.3685 14.7867 15.1562 15L15.1565 17.1874Z" fill="url(#paint3_linear_6_12)"/>
<path d="M23.7499 6.2501C21.4708 6.25018 19.2851 7.15558 17.6735 8.76714C16.062 10.3787 15.1566 12.5644 15.1565 14.8435V17.1871H17.5004C19.7794 17.187 21.9651 16.2815 23.5766 14.67C25.1881 13.0584 26.0934 10.8727 26.0935 8.5937V6.2501H23.7499Z" fill="#26F749"/>
<path d="M17.5001 17.1874C19.7792 17.1873 21.965 16.2819 23.5766 14.6703C25.1881 13.0586 26.0935 10.8728 26.0935 8.5937V6.2501L15.1562 17.1874H17.5001Z" fill="url(#paint4_linear_6_12)"/>
<defs>
<linearGradient id="paint0_linear_6_12" x1="24.9872" y1="21.0318" x2="34.141" y2="21.0318" gradientUnits="userSpaceOnUse">
<stop offset="0.43" stop-color="#ECECEC"/>
<stop offset="0.51" stop-color="#F6F6F6"/>
<stop offset="0.64" stop-color="#FDFDFD"/>
<stop offset="1" stop-color="white"/>
</linearGradient>
<linearGradient id="paint1_linear_6_12" x1="18.8279" y1="14.6873" x2="18.8279" y2="19.6873" gradientUnits="userSpaceOnUse">
<stop offset="0.33" stop-color="#9A5728"/>
<stop offset="0.54" stop-color="#944F2D"/>
<stop offset="1" stop-color="#8A4334"/>
</linearGradient>
<linearGradient id="paint2_linear_6_12" x1="10.5733" y1="16.3849" x2="26.4044" y2="16.3849" gradientUnits="userSpaceOnUse">
<stop stop-color="#83452A"/>
<stop offset="0.27" stop-color="#83452A" stop-opacity="0.84"/>
<stop offset="0.74" stop-color="#83452A" stop-opacity="0.59"/>
<stop offset="1" stop-color="#83452A" stop-opacity="0.5"/>
</linearGradient>
<linearGradient id="paint3_linear_6_12" x1="17.3443" y1="19.3755" x2="23.2716" y2="13.449" gradientUnits="userSpaceOnUse">
<stop stop-color="#6D3821"/>
<stop offset="0.77" stop-color="#6D3821" stop-opacity="0"/>
<stop offset="1" stop-color="#6D3821" stop-opacity="0"/>
</linearGradient>
<linearGradient id="paint4_linear_6_12" x1="15.1561" y1="11.7186" x2="26.0934" y2="11.7186" gradientUnits="userSpaceOnUse">
<stop stop-color="#00A43C"/>
<stop offset="0.22" stop-color="#00AA3B"/>
<stop offset="0.52" stop-color="#00BA38"/>
<stop offset="0.85" stop-color="#00D534"/>
<stop offset="0.99" stop-color="#00E431"/>
</linearGradient>
</defs>
</svg>
