<svg width="300" height="300" viewBox="0 0 300 300" fill="none" xmlns="http://www.w3.org/2000/svg">
<path d="M150 300C67.1573 300 0 232.843 0 150C0 67.1573 67.1573 0 150 0C232.843 0 300 67.1573 300 150V281.25C300 291.605 291.605 300 281.25 300H150Z" fill="#5E4430"/>
<g filter="url(#filter0_d_3_9)">
<path d="M156.999 37.5022C156.999 41.3867 153.865 44.5357 150 44.5357C146.134 44.5357 143.001 41.3867 143.001 37.5022C143.001 33.6177 146.134 30.4688 150 30.4688C153.865 30.4688 156.999 33.6177 156.999 37.5022Z" fill="#FFD090"/>
<path d="M150 58.6027C153.865 58.6027 156.999 61.7516 156.999 65.6361V79.7031C156.999 83.5876 153.865 86.7366 150 86.7366C146.134 86.7366 143.001 83.5876 143.001 79.7031V65.6361C143.001 61.7516 146.134 58.6027 150 58.6027Z" fill="#FFD090"/>
<path d="M150 114.87C146.134 114.87 143.001 111.721 143.001 107.837C143.001 103.953 146.134 100.804 150 100.804C153.865 100.804 156.999 103.953 156.999 107.837C156.999 111.721 153.865 114.87 150 114.87Z" fill="#FFD090"/>
<path d="M174.198 77.4524C175.039 77.1025 175.94 76.9224 176.85 76.9224C177.76 76.9223 178.661 77.1024 179.502 77.4523C180.342 77.8023 181.106 78.3152 181.75 78.9618C182.393 79.6083 182.903 80.376 183.252 81.2208C183.6 82.0656 183.779 82.9711 183.779 83.8855C183.779 85.7322 183.049 87.5032 181.749 88.809C180.45 90.1147 178.688 90.8482 176.85 90.8482C175.012 90.8482 173.25 90.1147 171.951 88.8089C170.651 87.5032 169.921 85.7322 169.921 83.8855C169.921 82.9711 170.1 82.0656 170.448 81.2208C170.797 80.376 171.307 79.6084 171.95 78.9618C172.594 78.3152 173.358 77.8023 174.198 77.4524Z" fill="#FFD090"/>
<path d="M108.955 102.048C110.254 100.742 112.017 100.008 113.854 100.008C115.692 100.008 117.454 100.742 118.754 102.048C120.053 103.353 120.783 105.124 120.783 106.971C120.783 107.886 120.604 108.791 120.256 109.636C119.908 110.481 119.397 111.248 118.754 111.895C118.111 112.541 117.347 113.054 116.506 113.404C115.665 113.754 114.764 113.934 113.854 113.934C112.944 113.934 112.043 113.754 111.203 113.404C110.362 113.054 109.598 112.541 108.955 111.895C108.311 111.248 107.801 110.481 107.453 109.636C107.105 108.791 106.925 107.886 106.925 106.971C106.925 105.124 107.656 103.353 108.955 102.048Z" fill="#FFD090"/>
<path d="M140.921 132.24C143.283 129.868 146.471 128.514 149.81 128.464C153.28 128.412 156.623 129.775 159.078 132.24L238.794 212.349C246.878 220.478 241.152 234.372 229.716 234.375H70.2831C58.8476 234.371 53.1221 220.478 61.2059 212.349L140.921 132.24ZM151.92 137.247C151.473 137.159 151.02 137.114 150.567 137.114C148.778 137.114 146.99 137.8 145.625 139.171L128.909 155.969C126.181 158.711 126.181 163.158 128.909 165.9C131.639 168.643 136.063 168.643 138.792 165.9L150.722 153.912L221.82 225.361C224.55 228.104 228.974 228.104 231.703 225.361C234.432 222.619 234.432 218.172 231.703 215.43L155.881 139.234C154.766 138.114 153.369 137.452 151.92 137.247ZM121.522 172.234C120.223 170.928 118.461 170.195 116.623 170.195C114.786 170.194 113.023 170.928 111.724 172.234C110.424 173.54 109.694 175.311 109.694 177.157C109.694 178.072 109.873 178.977 110.222 179.822C110.57 180.667 111.08 181.434 111.724 182.081C112.367 182.728 113.131 183.24 113.972 183.59C114.812 183.94 115.713 184.12 116.623 184.12C118.461 184.12 120.223 183.387 121.523 182.081C122.822 180.775 123.552 179.004 123.552 177.157C123.552 175.311 122.822 173.54 121.522 172.234ZM93.7429 198.666C92.4435 197.36 90.6811 196.626 88.8435 196.626C87.006 196.627 85.2438 197.36 83.9444 198.666C82.6451 199.972 81.9152 201.743 81.9151 203.589C81.915 205.436 82.645 207.207 83.9443 208.513C85.2436 209.819 87.0059 210.552 88.8435 210.552C89.7535 210.552 90.6545 210.372 91.4952 210.022C92.3358 209.672 93.0997 209.159 93.7431 208.513C94.3865 207.866 94.8969 207.099 95.2451 206.254C95.5933 205.409 95.7725 204.504 95.7725 203.589C95.7724 201.742 95.0424 199.971 93.7429 198.666Z" fill="#FFD090"/>
<path d="M201.517 140.467C202.816 139.161 204.578 138.428 206.416 138.427C207.326 138.427 208.227 138.607 209.068 138.957C209.908 139.307 210.672 139.82 211.316 140.467C211.959 141.113 212.469 141.881 212.818 142.726C213.166 143.571 213.345 144.476 213.345 145.391C213.345 147.237 212.615 149.008 211.315 150.314C210.016 151.62 208.254 152.353 206.416 152.353C204.579 152.353 202.816 151.62 201.517 150.314C200.218 149.008 199.488 147.237 199.488 145.391C199.487 143.544 200.217 141.773 201.517 140.467Z" fill="#FFD090"/>
<path d="M86.6135 151.687C87.4542 151.337 88.3552 151.157 89.2651 151.157C91.1027 151.157 92.8651 151.891 94.1644 153.197C95.4638 154.503 96.1937 156.274 96.1936 158.12C96.1935 159.967 95.4635 161.738 94.1642 163.044C92.8649 164.349 91.1027 165.083 89.2651 165.083C87.4275 165.083 85.6651 164.35 84.3657 163.044C83.0663 161.738 82.3362 159.967 82.3361 158.12C82.3361 157.206 82.5154 156.301 82.8636 155.456C83.2118 154.611 83.7222 153.843 84.3656 153.197C85.009 152.55 85.7728 152.037 86.6135 151.687Z" fill="#FFD090"/>
</g>
<path d="M231.734 285.938H225.277L218.58 276.276C218.484 276.138 218.393 275.993 218.307 275.844C218.222 275.684 218.11 275.491 217.971 275.267H217.891V285.938H212.716V262.962H217.891V273.232H217.971C218.046 273.093 218.131 272.944 218.227 272.784C218.334 272.623 218.462 272.431 218.612 272.207L225.085 262.962H230.965L223.066 273.793L231.734 285.938Z" fill="#FFD090"/>
<path d="M243.253 286.338C239.942 286.338 237.224 285.27 235.098 283.134C232.973 280.987 231.91 278.194 231.91 274.754C231.91 271.123 232.989 268.185 235.146 265.942C237.304 263.699 240.129 262.578 243.622 262.578C246.922 262.578 249.609 263.651 251.681 265.798C253.764 267.945 254.805 270.776 254.805 274.29C254.805 277.9 253.726 280.811 251.569 283.022C249.422 285.233 246.65 286.338 243.253 286.338ZM243.349 281.804C245.155 281.804 246.607 281.168 247.707 279.897C248.808 278.616 249.358 276.842 249.358 274.578C249.358 272.218 248.824 270.38 247.755 269.067C246.687 267.753 245.261 267.096 243.478 267.096C241.64 267.096 240.161 267.774 239.04 269.131C237.918 270.477 237.357 272.26 237.357 274.482C237.357 276.736 237.918 278.519 239.04 279.833C240.161 281.147 241.598 281.804 243.349 281.804Z" fill="#FFD090"/>
<path d="M276.979 285.938H271.163L267.751 279.721C267.291 278.877 266.848 278.279 266.421 277.927C266.004 277.574 265.491 277.398 264.883 277.398H263.489V285.938H258.314V262.962H266.517C269.369 262.962 271.473 263.555 272.829 264.741C274.197 265.926 274.88 267.507 274.88 269.483C274.88 270.925 274.453 272.239 273.598 273.425C272.744 274.599 271.548 275.411 270.01 275.86V275.924C270.597 276.159 271.147 276.554 271.66 277.11C272.173 277.654 272.712 278.418 273.278 279.401L276.979 285.938ZM263.489 266.904V273.425H265.732C266.917 273.425 267.831 273.115 268.472 272.495C269.112 271.865 269.433 271.032 269.433 269.996C269.433 269.003 269.134 268.239 268.536 267.705C267.937 267.171 267.035 266.904 265.828 266.904H263.489Z" fill="#FFD090"/>
<defs>
<filter id="filter0_d_3_9" x="38.6719" y="11.7188" width="222.656" height="241.406" filterUnits="userSpaceOnUse" color-interpolation-filters="sRGB">
<feFlood flood-opacity="0" result="BackgroundImageFix"/>
<feColorMatrix in="SourceAlpha" type="matrix" values="0 0 0 0 0 0 0 0 0 0 0 0 0 0 0 0 0 0 127 0" result="hardAlpha"/>
<feOffset/>
<feGaussianBlur stdDeviation="9.375"/>
<feComposite in2="hardAlpha" operator="out"/>
<feColorMatrix type="matrix" values="0 0 0 0 0 0 0 0 0 0 0 0 0 0 0 0 0 0 0.5 0"/>
<feBlend mode="normal" in2="BackgroundImageFix" result="effect1_dropShadow_3_9"/>
<feBlend mode="normal" in="SourceGraphic" in2="effect1_dropShadow_3_9" result="shape"/>
</filter>
</defs>
</svg>
