<svg width="356" height="48" viewBox="0 0 356 48" fill="none" xmlns="http://www.w3.org/2000/svg">
<circle cx="24" cy="24" r="24" fill="white"/>
<g clip-path="url(#clip0_1812_185)">
<rect x="1.35827" y="1.35852" width="45.283" height="45.283" rx="22.6415" fill="white"/>
<path d="M46.6413 46.6415L1.35827 46.6415L1.35827 8.90564L46.6413 39.0943V46.6415Z" fill="#0047A0"/>
<path d="M1.35827 1.35852H46.6413V39.0944L1.35827 8.90569V1.35852Z" fill="#CD2E3A"/>
<circle cx="23.9998" cy="24.3586" r="16.9811" fill="white"/>
<path d="M23.9999 10.2029V10.2029C24.2088 10.2029 24.4093 10.2859 24.557 10.4337C24.7048 10.5815 24.7878 10.7819 24.7878 10.9909C24.7878 11.1998 24.7048 11.4003 24.5571 11.5481C24.4093 11.6958 24.2088 11.7789 23.9999 11.7789C23.8964 11.7789 23.7939 11.7585 23.6983 11.7189C23.6027 11.6793 23.5158 11.6213 23.4426 11.5481C23.3694 11.4749 23.3114 11.388 23.2718 11.2924C23.2322 11.1968 23.2118 11.0943 23.2118 10.9909C23.2118 10.7819 23.2949 10.5814 23.4427 10.4337C23.5904 10.2859 23.7909 10.2029 23.9999 10.2029ZM23.9999 13.3464C24.4351 13.3464 24.7879 13.6992 24.7879 14.1344V15.794C24.7879 16.2292 24.4351 16.5821 23.9999 16.5821C23.5647 16.5821 23.2119 16.2292 23.2119 15.794V14.1344C23.2119 13.6992 23.5647 13.3464 23.9999 13.3464ZM27.0535 15.4601V15.4601C27.157 15.4601 27.2594 15.4805 27.355 15.5201C27.4507 15.5597 27.5375 15.6177 27.6107 15.6909C27.6839 15.7641 27.7419 15.851 27.7815 15.9466C27.8211 16.0422 27.8415 16.1447 27.8415 16.2481C27.8415 16.4571 27.7585 16.6576 27.6107 16.8053C27.4629 16.9531 27.2625 17.0361 27.0535 17.0361C26.8445 17.0361 26.644 16.9531 26.4963 16.8053C26.3485 16.6576 26.2655 16.4571 26.2654 16.2481C26.2654 16.1447 26.2858 16.0422 26.3254 15.9466C26.365 15.851 26.4231 15.7641 26.4962 15.6909C26.5694 15.6177 26.6563 15.5597 26.7519 15.5201C26.8475 15.4805 26.95 15.4601 27.0535 15.4601ZM19.889 18.0728V18.0728C20.098 18.0728 20.2984 18.1558 20.4462 18.3036C20.594 18.4514 20.677 18.6518 20.677 18.8608C20.677 18.9643 20.6566 19.0667 20.617 19.1624C20.5774 19.258 20.5194 19.3448 20.4462 19.418C20.373 19.4912 20.2862 19.5492 20.1906 19.5888C20.095 19.6284 19.9925 19.6488 19.889 19.6488C19.7855 19.6488 19.683 19.6284 19.5874 19.5888C19.4918 19.5492 19.4049 19.4912 19.3318 19.418C19.2586 19.3448 19.2005 19.258 19.1609 19.1624C19.1213 19.0667 19.1009 18.9643 19.101 18.8608C19.101 18.6518 19.184 18.4514 19.3318 18.3036C19.4796 18.1558 19.68 18.0728 19.889 18.0728ZM23.9999 18.1495C23.8964 18.1495 23.794 18.1699 23.6983 18.2095C23.6027 18.2491 23.5159 18.3071 23.4427 18.3803C23.3695 18.4535 23.3115 18.5404 23.2719 18.636C23.2323 18.7316 23.2119 18.8341 23.2119 18.9376C23.2119 19.041 23.2323 19.1435 23.2719 19.2391C23.3115 19.3347 23.3695 19.4216 23.4427 19.4948C23.5159 19.568 23.6027 19.626 23.6983 19.6656C23.794 19.7052 23.8964 19.7256 23.9999 19.7256C24.2089 19.7256 24.4093 19.6425 24.5571 19.4948C24.7049 19.347 24.7879 19.1465 24.7879 18.9376C24.7879 18.7286 24.7049 18.5281 24.5571 18.3803C24.4093 18.2326 24.2089 18.1495 23.9999 18.1495V18.1495ZM23.9782 21.2932H23.9782C24.3728 21.2873 24.7531 21.4415 25.0323 21.7205L34.0984 30.7866C35.0178 31.7066 34.3665 33.2789 33.0658 33.2793H14.9336C13.6331 33.2788 12.9819 31.7065 13.9013 30.7866L22.9673 21.7205C23.2359 21.4521 23.5985 21.2988 23.9782 21.2932ZM24.0643 22.2721H24.0642C23.8608 22.2721 23.6574 22.3497 23.5023 22.5049L21.6012 24.406C21.2909 24.7163 21.2908 25.2195 21.6012 25.5299C21.9116 25.8403 22.4148 25.8403 22.7251 25.5299L24.0819 24.1732L32.1679 32.2592C32.4783 32.5696 32.9815 32.5696 33.2918 32.2592C33.6022 31.9488 33.6022 31.4456 33.2918 31.1352L24.6687 22.512C24.5419 22.3853 24.383 22.3103 24.2182 22.2871C24.1674 22.2772 24.1158 22.2721 24.0643 22.2721ZM30.416 22.4207V22.4207C30.5195 22.4207 30.622 22.4411 30.7176 22.4807C30.8132 22.5203 30.9001 22.5784 30.9732 22.6516C31.0464 22.7247 31.1045 22.8116 31.1441 22.9072C31.1837 23.0028 31.204 23.1053 31.204 23.2088C31.204 23.4178 31.121 23.6182 30.9732 23.766C30.8254 23.9137 30.625 23.9968 30.416 23.9968C30.207 23.9967 30.0066 23.9137 29.8588 23.766C29.7111 23.6182 29.628 23.4178 29.628 23.2088C29.628 22.9998 29.711 22.7994 29.8588 22.6516C30.0066 22.5038 30.207 22.4208 30.416 22.4207ZM17.0925 23.8614V23.8614C17.3015 23.8614 17.5019 23.9444 17.6497 24.0922C17.7974 24.24 17.8804 24.4404 17.8804 24.6494C17.8804 24.8584 17.7974 25.0588 17.6496 25.2066C17.5019 25.3544 17.3014 25.4374 17.0925 25.4374C16.8835 25.4374 16.683 25.3544 16.5353 25.2066C16.3875 25.0589 16.3044 24.8584 16.3044 24.6494C16.3044 24.546 16.3248 24.4435 16.3644 24.3479C16.404 24.2523 16.4621 24.1654 16.5352 24.0922C16.6084 24.019 16.6953 23.961 16.7909 23.9214C16.8865 23.8818 16.989 23.8614 17.0925 23.8614ZM20.2039 26.0159V26.0159C19.9949 26.0159 19.7945 26.0989 19.6467 26.2467C19.4989 26.3944 19.4159 26.5949 19.4159 26.8039C19.4159 26.9073 19.4362 27.0098 19.4758 27.1054C19.5154 27.201 19.5735 27.2879 19.6467 27.3611C19.7198 27.4343 19.8067 27.4923 19.9023 27.5319C19.9979 27.5715 20.1004 27.5919 20.2039 27.5919C20.4129 27.5919 20.6133 27.5089 20.7611 27.3611C20.9089 27.2133 20.9919 27.0129 20.9919 26.8039C20.9919 26.5949 20.9088 26.3945 20.7611 26.2467C20.6133 26.0989 20.4129 26.0159 20.2039 26.0159ZM17.0445 29.0072C16.8355 29.0073 16.6351 29.0903 16.4873 29.238C16.3396 29.3858 16.2566 29.5862 16.2565 29.7952C16.2565 30.0042 16.3396 30.2046 16.4873 30.3524C16.6351 30.5002 16.8355 30.5832 17.0445 30.5832C17.148 30.5833 17.2505 30.5629 17.3461 30.5233C17.4417 30.4837 17.5286 30.4256 17.6017 30.3524C17.6749 30.2793 17.733 30.1924 17.7726 30.0968C17.8122 30.0012 17.8325 29.8987 17.8325 29.7952C17.8325 29.5862 17.7495 29.3858 17.6017 29.238C17.4539 29.0902 17.2535 29.0072 17.0445 29.0072Z" fill="black"/>
</g>
<path d="M65.2039 19.235V30.2264H63.5715V19.235H59.0941V17.7736H69.6658V19.235H65.2039Z" fill="white"/>
<path d="M73.1149 17.385V22.6864C73.343 22.2822 73.7161 21.9194 74.2343 21.5981C74.7629 21.2768 75.3951 21.1162 76.131 21.1162C76.8254 21.1162 77.4421 21.2768 77.981 21.5981C78.5303 21.9194 78.9553 22.3755 79.2559 22.9662C79.5564 23.5466 79.7067 24.2307 79.7067 25.0184V30.2265H78.1054V25.2982C78.1054 24.4069 77.8981 23.7228 77.4835 23.2461C77.0793 22.7589 76.5145 22.5154 75.789 22.5154C75.2811 22.5154 74.8251 22.6605 74.4209 22.9507C74.0167 23.2305 73.6954 23.6088 73.457 24.0856C73.229 24.5623 73.1149 25.0754 73.1149 25.6247V30.2265H71.5136V17.385H73.1149Z" fill="white"/>
<path d="M86.0152 30.4441C85.1653 30.4441 84.3984 30.242 83.7143 29.8378C83.0406 29.4336 82.5121 28.8791 82.1286 28.1743C81.7451 27.4592 81.5534 26.6611 81.5534 25.7802C81.5534 24.8992 81.7451 24.1063 82.1286 23.4015C82.5121 22.6864 83.0406 22.1267 83.7143 21.7225C84.3984 21.3183 85.1653 21.1162 86.0152 21.1162C86.8651 21.1162 87.6269 21.3183 88.3006 21.7225C88.9846 22.1267 89.5132 22.6864 89.8863 23.4015C90.2698 24.1063 90.4616 24.8992 90.4616 25.7802C90.4616 26.0704 90.4512 26.288 90.4305 26.4331H83.1547C83.2376 27.2104 83.5381 27.8479 84.0564 28.3454C84.5849 28.8428 85.2379 29.0916 86.0152 29.0916C86.606 29.0916 87.1242 28.9724 87.5699 28.734C88.0259 28.4853 88.3369 28.1743 88.5027 27.8012H90.1351C89.8863 28.5786 89.3888 29.2108 88.6426 29.6979C87.8964 30.1954 87.0206 30.4441 86.0152 30.4441ZM88.8914 25.1272C88.7981 24.3395 88.4923 23.7021 87.9741 23.215C87.4559 22.7175 86.8029 22.4687 86.0152 22.4687C85.2275 22.4687 84.5746 22.7175 84.0564 23.215C83.5381 23.7021 83.2376 24.3395 83.1547 25.1272H88.8914Z" fill="white"/>
<path d="M101.346 17.7737C102.403 17.7737 103.315 17.955 104.082 18.3178C104.859 18.6702 105.45 19.1729 105.854 19.8258C106.269 20.4788 106.476 21.2354 106.476 22.0956C106.476 22.9559 106.269 23.7125 105.854 24.3654C105.45 25.0184 104.859 25.5262 104.082 25.889C103.315 26.2414 102.403 26.4176 101.346 26.4176H98.5629V30.2265H96.9305V17.7737H101.346ZM101.221 24.9406C102.361 24.9406 103.248 24.6971 103.88 24.21C104.522 23.7125 104.844 23.0077 104.844 22.0956C104.844 21.1835 104.522 20.484 103.88 19.9968C103.248 19.4993 102.361 19.2506 101.221 19.2506H98.5629V24.9406H101.221Z" fill="white"/>
<path d="M112.222 21.1162C113.082 21.1162 113.86 21.3183 114.554 21.7225C115.248 22.1267 115.787 22.6864 116.171 23.4015C116.565 24.1063 116.762 24.8992 116.762 25.7802C116.762 26.6611 116.565 27.4592 116.171 28.1743C115.787 28.8791 115.248 29.4336 114.554 29.8378C113.86 30.242 113.082 30.4441 112.222 30.4441C111.351 30.4441 110.569 30.242 109.874 29.8378C109.19 29.4336 108.651 28.8791 108.258 28.1743C107.864 27.4592 107.667 26.6611 107.667 25.7802C107.667 24.8992 107.864 24.1063 108.258 23.4015C108.651 22.6864 109.19 22.1267 109.874 21.7225C110.569 21.3183 111.351 21.1162 112.222 21.1162ZM112.222 22.5309C111.642 22.5309 111.123 22.676 110.667 22.9662C110.222 23.2461 109.869 23.6347 109.61 24.1322C109.361 24.6193 109.237 25.1687 109.237 25.7802C109.237 26.3917 109.361 26.9462 109.61 27.4436C109.869 27.9308 110.222 28.3194 110.667 28.6096C111.123 28.8895 111.642 29.0294 112.222 29.0294C112.792 29.0294 113.305 28.8895 113.761 28.6096C114.217 28.3194 114.569 27.9308 114.818 27.4436C115.067 26.9462 115.191 26.3917 115.191 25.7802C115.191 25.1687 115.067 24.6193 114.818 24.1322C114.569 23.6347 114.217 23.2461 113.761 22.9662C113.305 22.676 112.792 22.5309 112.222 22.5309Z" fill="white"/>
<path d="M131.751 21.3338L128.61 30.2265H126.994L124.646 23.4171L122.314 30.2265H120.697L117.557 21.3338H119.22L121.552 28.2365L123.869 21.3338H125.486L127.818 28.2832L130.165 21.3338H131.751Z" fill="white"/>
<path d="M136.798 30.4441C135.969 30.4441 135.218 30.242 134.544 29.8378C133.881 29.4336 133.357 28.8739 132.974 28.1588C132.59 27.4436 132.399 26.6508 132.399 25.7802C132.399 24.9096 132.59 24.1167 132.974 23.4015C133.357 22.6864 133.881 22.1267 134.544 21.7225C135.218 21.3183 135.969 21.1162 136.798 21.1162C137.555 21.1162 138.208 21.2665 138.757 21.567C139.307 21.8676 139.706 22.2304 139.954 22.6553V17.385H141.556V30.2265H139.954V28.905C139.706 29.33 139.307 29.6927 138.757 29.9933C138.208 30.2939 137.555 30.4441 136.798 30.4441ZM136.938 29.0294C137.529 29.0294 138.052 28.8895 138.508 28.6096C138.975 28.3194 139.338 27.9308 139.597 27.4436C139.856 26.9462 139.985 26.3917 139.985 25.7802C139.985 25.1687 139.856 24.6193 139.597 24.1322C139.338 23.6347 138.975 23.2461 138.508 22.9662C138.052 22.676 137.529 22.5309 136.938 22.5309C136.358 22.5309 135.84 22.6708 135.384 22.9507C134.938 23.2305 134.591 23.6192 134.342 24.1167C134.093 24.6142 133.969 25.1687 133.969 25.7802C133.969 26.3917 134.093 26.9462 134.342 27.4436C134.591 27.9411 134.938 28.3298 135.384 28.6096C135.84 28.8895 136.358 29.0294 136.938 29.0294Z" fill="white"/>
<path d="M148.065 30.4441C147.215 30.4441 146.448 30.242 145.764 29.8378C145.09 29.4336 144.562 28.8791 144.178 28.1743C143.795 27.4592 143.603 26.6611 143.603 25.7802C143.603 24.8992 143.795 24.1063 144.178 23.4015C144.562 22.6864 145.09 22.1267 145.764 21.7225C146.448 21.3183 147.215 21.1162 148.065 21.1162C148.915 21.1162 149.677 21.3183 150.35 21.7225C151.034 22.1267 151.563 22.6864 151.936 23.4015C152.32 24.1063 152.511 24.8992 152.511 25.7802C152.511 26.0704 152.501 26.288 152.48 26.4331H145.204C145.287 27.2104 145.588 27.8479 146.106 28.3454C146.635 28.8428 147.288 29.0916 148.065 29.0916C148.656 29.0916 149.174 28.9724 149.62 28.734C150.076 28.4853 150.387 28.1743 150.552 27.8012H152.185C151.936 28.5786 151.439 29.2108 150.692 29.6979C149.946 30.1954 149.07 30.4441 148.065 30.4441ZM150.941 25.1272C150.848 24.3395 150.542 23.7021 150.024 23.215C149.506 22.7175 148.853 22.4687 148.065 22.4687C147.277 22.4687 146.624 22.7175 146.106 23.215C145.588 23.7021 145.287 24.3395 145.204 25.1272H150.941Z" fill="white"/>
<path d="M156.147 21.3338V22.7019C156.385 22.2977 156.779 21.935 157.328 21.6137C157.888 21.282 158.561 21.1162 159.349 21.1162C159.857 21.1162 160.261 21.168 160.562 21.2716V22.7952C160.199 22.6294 159.759 22.5465 159.24 22.5465C158.65 22.5465 158.116 22.6916 157.639 22.9818C157.173 23.2616 156.805 23.6399 156.535 24.1167C156.276 24.5831 156.147 25.0857 156.147 25.6247V30.2265H154.545V21.3338H156.147Z" fill="white"/>
<path d="M171.95 19.235V30.2265H170.318V19.235H165.84V17.7737H176.412V19.235H171.95Z" fill="white"/>
<path d="M179.874 21.1162C180.734 21.1162 181.512 21.3183 182.206 21.7225C182.9 22.1267 183.439 22.6864 183.823 23.4015C184.217 24.1063 184.414 24.8992 184.414 25.7802C184.414 26.6611 184.217 27.4592 183.823 28.1743C183.439 28.8791 182.9 29.4336 182.206 29.8378C181.512 30.242 180.734 30.4441 179.874 30.4441C179.003 30.4441 178.221 30.242 177.526 29.8378C176.842 29.4336 176.303 28.8791 175.91 28.1743C175.516 27.4592 175.319 26.6611 175.319 25.7802C175.319 24.8992 175.516 24.1063 175.91 23.4015C176.303 22.6864 176.842 22.1267 177.526 21.7225C178.221 21.3183 179.003 21.1162 179.874 21.1162ZM179.874 22.5309C179.294 22.5309 178.775 22.676 178.319 22.9662C177.874 23.2461 177.521 23.6347 177.262 24.1322C177.013 24.6193 176.889 25.1687 176.889 25.7802C176.889 26.3917 177.013 26.9462 177.262 27.4436C177.521 27.9308 177.874 28.3194 178.319 28.6096C178.775 28.8895 179.294 29.0294 179.874 29.0294C180.444 29.0294 180.957 28.8895 181.413 28.6096C181.869 28.3194 182.222 27.9308 182.47 27.4436C182.719 26.9462 182.843 26.3917 182.843 25.7802C182.843 25.1687 182.719 24.6193 182.47 24.1322C182.222 23.6347 181.869 23.2461 181.413 22.9662C180.957 22.676 180.444 22.5309 179.874 22.5309Z" fill="white"/>
<path d="M194.274 21.3338L188.724 34.0043H187.107L188.864 30.0399L185.055 21.3338H186.812L189.673 28.3298L192.611 21.3338H194.274Z" fill="white"/>
<path d="M210.567 18.7375H200.711V17.4316H212.106V21.9401H210.567V18.7375ZM213.086 22.8729V24.1478H199.824V22.8729H204.799V20.2767H206.354V22.8729H213.086ZM206.447 25.3915C208.168 25.3915 209.567 25.604 210.645 26.0289C211.733 26.4538 212.277 27.1016 212.277 27.9722C212.277 28.8532 211.733 29.5062 210.645 29.9311C209.567 30.356 208.168 30.5685 206.447 30.5685C204.727 30.5685 203.322 30.356 202.234 29.9311C201.156 29.5062 200.617 28.8532 200.617 27.9722C200.617 27.0705 201.151 26.4176 202.219 26.0134C203.296 25.5988 204.706 25.3915 206.447 25.3915ZM206.447 29.3403C207.618 29.3403 208.613 29.2211 209.432 28.9828C210.251 28.7547 210.66 28.4179 210.66 27.9722C210.66 27.5369 210.251 27.2053 209.432 26.9772C208.613 26.7389 207.618 26.6197 206.447 26.6197C205.255 26.6197 204.255 26.7337 203.447 26.9617C202.638 27.1794 202.234 27.5162 202.234 27.9722C202.234 28.4179 202.644 28.7547 203.462 28.9828C204.281 29.2211 205.276 29.3403 206.447 29.3403Z" fill="white"/>
<path d="M227.17 17.2762V25.2049H225.63V17.2762H227.17ZM219.443 21.8313C218.935 22.6501 218.298 23.3238 217.531 23.8524C216.764 24.3706 215.914 24.6919 214.981 24.8163V23.386C215.8 23.2409 216.52 22.8833 217.142 22.3133C217.764 21.7432 218.241 21.0333 218.572 20.1834C218.914 19.3231 219.09 18.3955 219.101 17.4005L220.64 17.4938C220.64 18.5821 220.448 19.6133 220.065 20.5876L224.278 23.5104L223.407 24.6297L219.443 21.8313ZM215.789 25.9356H227.17V30.553H225.615V27.2726H215.789V25.9356Z" fill="white"/>
<path d="M246.854 17.2762V30.553H245.393V24.07H243.232V30.3198H241.771V17.3539H243.232V22.6242H245.393V17.2762H246.854ZM237.713 28.392C238.283 28.392 238.838 28.3505 239.377 28.2676C239.926 28.1743 240.403 28.0448 240.807 27.879V29.2315C240.423 29.3973 239.936 29.5269 239.345 29.6202C238.755 29.7135 238.154 29.7601 237.542 29.7601H234.495V17.7581H240.232V19.1262H236.003V28.392H237.713Z" fill="white"/>
<path d="M258.016 19.7947H248.999V18.5354H252.73V17.043H254.284V18.5354H258.016V19.7947ZM262.928 20.9141V22.391H261.063V27.226H259.524V17.2762H261.063V20.9141H262.928ZM253.507 25.9823C252.761 25.9823 252.087 25.8786 251.486 25.6713C250.895 25.4537 250.429 25.1376 250.087 24.723C249.745 24.3084 249.574 23.8213 249.574 23.2616C249.574 22.7019 249.745 22.2148 250.087 21.8002C250.429 21.3857 250.895 21.0747 251.486 20.8674C252.087 20.6498 252.761 20.541 253.507 20.541C254.253 20.541 254.922 20.6498 255.513 20.8674C256.103 21.0747 256.57 21.3857 256.912 21.8002C257.254 22.2044 257.425 22.6916 257.425 23.2616C257.425 23.8317 257.254 24.324 256.912 24.7385C256.57 25.1428 256.103 25.4537 255.513 25.6713C254.922 25.8786 254.253 25.9823 253.507 25.9823ZM253.507 21.7225C252.771 21.7225 252.18 21.8676 251.735 22.1578C251.289 22.448 251.066 22.8159 251.066 23.2616C251.066 23.7176 251.289 24.0908 251.735 24.381C252.18 24.6608 252.771 24.8007 253.507 24.8007C254.243 24.8007 254.834 24.6608 255.279 24.381C255.725 24.0908 255.948 23.7176 255.948 23.2616C255.948 22.8159 255.725 22.448 255.279 22.1578C254.834 21.8676 254.243 21.7225 253.507 21.7225ZM251.517 29.0139H261.42V30.382H249.962V26.7441H251.517V29.0139Z" fill="white"/>
<path d="M274.851 17.2762H276.39V27.1327H274.851V17.2762ZM264.606 17.6026H272.504V24.7696H264.606V17.6026ZM270.98 23.4326V18.9397H266.13V23.4326H270.98ZM265.135 26.0755H266.689V28.9828H276.748V30.382H265.135V26.0755Z" fill="white"/>
<path d="M289.681 18.7686H279.871V17.4316H291.236V21.9401H289.681V18.7686ZM286.354 24.0234V26.1688H291.283V30.5685H289.728V27.4903H279.763V26.1688H284.8V24.0234H278.954V22.7019H292.215V24.0234H286.354Z" fill="white"/>
<path d="M310.765 17.2762V30.553H309.226V24.1167H305.884C305.594 25.2982 305.117 26.3087 304.454 27.1483C303.79 27.9878 302.977 28.6252 302.013 29.0605C301.059 29.5062 299.997 29.729 298.826 29.729V28.2832C300.246 28.2728 301.437 27.9049 302.401 27.1794C303.365 26.4435 304.018 25.3759 304.36 23.9768H298.826V22.5776H304.593C304.625 22.2459 304.64 21.9091 304.64 21.567V19.1729H298.826V17.7581H306.179V21.4738C306.179 21.9298 306.158 22.3288 306.117 22.6708H309.226V17.2762H310.765Z" fill="white"/>
<path d="M325.549 24.0545H314.138V17.6648H325.549V24.0545ZM324.01 19.0796H315.677V22.6553H324.01V19.0796ZM326.482 27.1016H323.201V30.8639H321.678V27.1016H318.009V30.8639H316.485V27.1016H313.22V25.6558H326.482V27.1016Z" fill="white"/>
<path d="M339.026 17.2762H340.566V30.553L339.026 30.5685V17.2762ZM328.937 17.6804H330.507V28.3454H334.362C334.984 28.3454 335.611 28.2883 336.244 28.1743C336.876 28.05 337.394 27.8893 337.798 27.6924V29.1071C337.394 29.3041 336.881 29.4595 336.259 29.5735C335.637 29.6979 335.005 29.7601 334.362 29.7601H328.937V17.6804Z" fill="white"/>
<path d="M355.52 17.2762V30.553H353.981V17.2762H355.52ZM349.301 28.3454C349.934 28.3454 350.561 28.2883 351.183 28.1743C351.815 28.0603 352.333 27.9049 352.737 27.7079V29.1227C352.343 29.3196 351.836 29.4751 351.214 29.5891C350.592 29.7031 349.954 29.7601 349.301 29.7601H343.891V17.7581H351.696V19.1729H345.43V22.9507H351.462V24.3654H345.43V28.3454H349.301Z" fill="white"/>
<defs>
<clipPath id="clip0_1812_185">
<rect x="1.35827" y="1.35852" width="45.283" height="45.283" rx="22.6415" fill="white"/>
</clipPath>
</defs>
</svg>
