<?xml version="1.1" encoding="UTF-8"?>
<svg version="2.0" viewBox="0 0 256 256" xmlns="http://www.w3.org/2000/svg">
	<path d="M128 256C198.692 256 256 198.692 256 128C256 57.3076 198.692 0 128 0C57.3076 0 0 57.3076 0 128C0 198.692 57.3076 256 128 256Z" fill="#5E4430"/>
	<g filter="url(#filter0_d_725_293)">
		<path d="M128.001 24C126.425 23.9999 124.915 24.6257 123.801 25.7396C122.687 26.8534 122.061 28.3642 122.061 29.9396C122.061 30.7196 122.214 31.4921 122.513 32.2128C122.811 32.9334 123.249 33.5883 123.8 34.1399C124.352 34.6914 125.007 35.129 125.728 35.4275C126.448 35.726 127.221 35.8796 128.001 35.8796C129.576 35.8795 131.087 35.2536 132.201 34.1397C133.315 33.0257 133.94 31.5149 133.94 29.9396C133.94 28.3643 133.314 26.8536 132.2 25.7397C131.087 24.6259 129.576 24.0001 128.001 24V24ZM128.001 47.6951C124.72 47.6951 122.061 50.3543 122.061 53.6347V66.1449C122.061 69.4253 124.72 72.0849 128.001 72.0849C131.281 72.0849 133.941 69.4253 133.941 66.1449V53.6347C133.941 50.3543 131.281 47.6951 128.001 47.6951ZM151.018 63.6279C150.238 63.6279 149.466 63.7815 148.745 64.08C148.024 64.3785 147.369 64.816 146.818 65.3676C146.266 65.9192 145.829 66.574 145.53 67.2947C145.232 68.0154 145.078 68.7878 145.078 69.5679C145.078 71.1432 145.704 72.654 146.818 73.7679C147.932 74.8818 149.443 75.5075 151.018 75.5075C152.593 75.5075 154.104 74.8818 155.218 73.7679C156.332 72.654 156.958 71.1432 156.958 69.5679C156.958 68.7878 156.805 68.0154 156.506 67.2947C156.208 66.574 155.77 65.9192 155.218 65.3676C154.667 64.816 154.012 64.3785 153.291 64.08C152.571 63.7815 151.798 63.6278 151.018 63.6279V63.6279ZM97.0139 83.3218C95.4385 83.3217 93.9277 83.9475 92.8137 85.0614C91.6998 86.1752 91.0739 87.686 91.0738 89.2614C91.0738 90.0414 91.2274 90.8139 91.5259 91.5345C91.8244 92.2552 92.262 92.9101 92.8136 93.4617C93.3651 94.0132 94.02 94.4508 94.7407 94.7493C95.4614 95.0478 96.2338 95.2014 97.0139 95.2014C97.7939 95.2014 98.5663 95.0478 99.287 94.7493C100.008 94.4508 100.663 94.0132 101.214 93.4616C101.766 92.91 102.203 92.2552 102.502 91.5345C102.8 90.8139 102.954 90.0414 102.954 89.2614C102.954 87.686 102.328 86.1753 101.214 85.0614C100.1 83.9475 98.5892 83.3218 97.0139 83.3218V83.3218ZM128.001 83.9C127.221 83.9 126.449 84.0536 125.728 84.3521C125.007 84.6506 124.352 85.0881 123.801 85.6397C123.249 86.1913 122.812 86.8461 122.513 87.5668C122.215 88.2875 122.061 89.0599 122.061 89.84C122.061 90.6201 122.215 91.3925 122.513 92.1132C122.812 92.8339 123.249 93.4887 123.801 94.0403C124.352 94.5919 125.007 95.0294 125.728 95.3279C126.449 95.6264 127.221 95.7801 128.001 95.78C129.576 95.78 131.087 95.1541 132.201 94.0401C133.315 92.9262 133.941 91.4153 133.941 89.84C133.941 88.2647 133.315 86.7539 132.201 85.6399C131.087 84.5259 129.576 83.9001 128.001 83.9V83.9ZM127.838 107.596C124.975 107.638 122.242 108.794 120.217 110.817L51.8799 179.156C44.9499 186.09 49.8582 197.941 59.6615 197.945H196.338C206.142 197.942 211.051 186.09 204.121 179.156L135.783 110.817C133.678 108.714 130.812 107.552 127.837 107.596H127.838ZM128.486 114.975C128.875 114.975 129.263 115.013 129.646 115.088C130.888 115.263 132.087 115.828 133.042 116.783L198.042 181.783C200.381 184.123 200.381 187.916 198.042 190.256C195.702 192.595 191.909 192.595 189.57 190.256L128.619 129.305L118.392 139.532C116.053 141.871 112.26 141.871 109.92 139.532C107.581 137.192 107.581 133.399 109.92 131.06L124.25 116.73C125.42 115.56 126.953 114.975 128.486 114.975H128.486ZM176.364 116.096C174.789 116.096 173.278 116.722 172.164 117.835C171.05 118.949 170.424 120.46 170.425 122.036C170.425 123.611 171.05 125.122 172.164 126.235C173.278 127.349 174.789 127.975 176.364 127.975C177.939 127.975 179.45 127.349 180.564 126.236C181.678 125.122 182.304 123.611 182.304 122.036C182.304 121.256 182.151 120.483 181.852 119.762C181.553 119.042 181.116 118.387 180.564 117.835C180.013 117.284 179.358 116.846 178.637 116.548C177.917 116.249 177.144 116.096 176.364 116.096V116.096ZM75.9342 126.955C75.1542 126.955 74.3818 127.109 73.6611 127.407C72.9404 127.706 72.2856 128.143 71.734 128.695C71.1824 129.246 70.7449 129.901 70.4464 130.622C70.1479 131.342 69.9942 132.115 69.9942 132.895C69.9943 134.47 70.6202 135.981 71.7341 137.095C72.8481 138.209 74.3589 138.835 75.9342 138.835C77.5095 138.834 79.0202 138.209 80.1341 137.095C81.2479 135.981 81.8738 134.47 81.8738 132.895C81.8739 131.32 81.2481 129.809 80.1342 128.695C79.0203 127.581 77.5096 126.955 75.9342 126.955V126.955ZM99.3875 143.195C100.963 143.195 102.473 143.821 103.587 144.935C104.701 146.049 105.327 147.559 105.327 149.135C105.327 150.71 104.701 152.221 103.588 153.335C102.474 154.449 100.963 155.074 99.3875 155.075C98.6074 155.075 97.835 154.921 97.1143 154.622C96.3936 154.324 95.7388 153.886 95.1872 153.335C94.6357 152.783 94.1981 152.128 93.8996 151.408C93.6011 150.687 93.4475 149.915 93.4475 149.135C93.4476 147.559 94.0735 146.048 95.1874 144.935C96.3014 143.821 97.8122 143.195 99.3875 143.195V143.195ZM75.5728 165.743C77.1481 165.743 78.659 166.369 79.7729 167.483C80.8869 168.597 81.5127 170.107 81.5128 171.683C81.5128 172.463 81.3592 173.235 81.0607 173.956C80.7622 174.676 80.3246 175.331 79.773 175.883C79.2215 176.434 78.5667 176.872 77.846 177.171C77.1253 177.469 76.3529 177.623 75.5728 177.623C73.9975 177.623 72.4867 176.997 71.3729 175.883C70.259 174.769 69.6332 173.258 69.6333 171.683C69.6333 170.107 70.2591 168.597 71.373 167.483C72.4868 166.369 73.9976 165.743 75.5728 165.743Z" fill="#FFD090"/>
	</g>
	<defs>
		<filter id="filter0_d_725_293" x="32.636" y="8" width="190.729" height="205.945" filterUnits="userSpaceOnUse" color-interpolation-filters="sRGB">
			<feFlood flood-opacity="0" result="BackgroundImageFix"/>
			<feColorMatrix in="SourceAlpha" type="matrix" values="0 0 0 0 0 0 0 0 0 0 0 0 0 0 0 0 0 0 127 0" result="hardAlpha"/>
			<feOffset/>
			<feGaussianBlur stdDeviation="8"/>
			<feComposite in2="hardAlpha" operator="out"/>
			<feColorMatrix type="matrix" values="0 0 0 0 0 0 0 0 0 0 0 0 0 0 0 0 0 0 0.5 0"/>
			<feBlend mode="normal" in2="BackgroundImageFix" result="effect1_dropShadow_725_293"/>
			<feBlend mode="normal" in="SourceGraphic" in2="effect1_dropShadow_725_293" result="shape"/>
		</filter>
	</defs>
</svg>
